<svg xmlns="http://www.w3.org/2000/svg"><defs><symbol id="icon-phone" viewBox="0 0 32 32"><path d="M22 20c-2 2-2 4-4 4s-4-2-6-4-4-4-4-6 2-2 4-4-4-8-6-8-6 6-6 6c0 4 4.109 12.109 8 16s12 8 16 8c0 0 6-4 6-6s-6-8-8-6z"/></symbol><symbol id="icon-envelop" viewBox="0 0 32 32"><path d="M29 4H3C1.35 4 0 5.35 0 7v20c0 1.65 1.35 3 3 3h26c1.65 0 3-1.35 3-3V7c0-1.65-1.35-3-3-3zM12.461 17.199 4 23.789V8.113l8.461 9.086zM5.512 8h20.976L16 15.875 5.512 8zm7.278 9.553L16 21l3.21-3.447L25.79 26H6.211l6.58-8.447zm6.749-.354L28 8.113v15.676l-8.461-6.59z"/></symbol><symbol id="icon-facebook" viewBox="0 0 32 32"><path d="M19 6h5V0h-5c-3.86 0-7 3.14-7 7v3H8v6h4v16h6V16h5l1-6h-6V7c0-.542.458-1 1-1z"/></symbol><symbol id="icon-instagram" viewBox="0 0 32 32"><path d="M16 2.881c4.275 0 4.781.019 6.462.094 1.563.069 2.406.331 2.969.55a4.952 4.952 0 0 1 1.837 1.194 5.015 5.015 0 0 1 1.2 1.838c.219.563.481 1.412.55 2.969.075 1.688.094 2.194.094 6.463s-.019 4.781-.094 6.463c-.069 1.563-.331 2.406-.55 2.969a4.94 4.94 0 0 1-1.194 1.837 5.02 5.02 0 0 1-1.837 1.2c-.563.219-1.413.481-2.969.55-1.688.075-2.194.094-6.463.094s-4.781-.019-6.463-.094c-1.563-.069-2.406-.331-2.969-.55a4.952 4.952 0 0 1-1.838-1.194 5.02 5.02 0 0 1-1.2-1.837c-.219-.563-.481-1.413-.55-2.969-.075-1.688-.094-2.194-.094-6.463s.019-4.781.094-6.463c.069-1.563.331-2.406.55-2.969a4.964 4.964 0 0 1 1.194-1.838 5.015 5.015 0 0 1 1.838-1.2c.563-.219 1.412-.481 2.969-.55 1.681-.075 2.188-.094 6.463-.094zM16 0c-4.344 0-4.887.019-6.594.094-1.7.075-2.869.35-3.881.744-1.056.412-1.95.956-2.837 1.85a7.833 7.833 0 0 0-1.85 2.831C.444 6.538.169 7.7.094 9.4.019 11.113 0 11.656 0 16s.019 4.887.094 6.594c.075 1.7.35 2.869.744 3.881.413 1.056.956 1.95 1.85 2.837a7.82 7.82 0 0 0 2.831 1.844c1.019.394 2.181.669 3.881.744 1.706.075 2.25.094 6.594.094s4.888-.019 6.594-.094c1.7-.075 2.869-.35 3.881-.744 1.05-.406 1.944-.956 2.831-1.844s1.438-1.781 1.844-2.831c.394-1.019.669-2.181.744-3.881.075-1.706.094-2.25.094-6.594s-.019-4.887-.094-6.594c-.075-1.7-.35-2.869-.744-3.881a7.506 7.506 0 0 0-1.831-2.844A7.82 7.82 0 0 0 26.482.843C25.463.449 24.301.174 22.601.099c-1.712-.081-2.256-.1-6.6-.1z"/><path d="M16 7.781c-4.537 0-8.219 3.681-8.219 8.219s3.681 8.219 8.219 8.219 8.219-3.681 8.219-8.219A8.221 8.221 0 0 0 16 7.781zm0 13.55a5.331 5.331 0 1 1 0-10.663 5.331 5.331 0 0 1 0 10.663zM26.462 7.456a1.919 1.919 0 1 1-3.838 0 1.919 1.919 0 0 1 3.838 0z"/></symbol><symbol id="icon-telegram" viewBox="0 0 32 32"><path d="M16 0C7.162 0 0 7.162 0 16s7.162 16 16 16 16-7.163 16-16S24.837 0 16 0zm7.863 10.969-2.625 12.369c-.181.881-.712 1.087-1.45.681l-4-2.956-1.919 1.869c-.225.219-.4.4-.8.4-.519 0-.431-.194-.606-.688L11.1 18.169l-3.956-1.231c-.856-.262-.862-.85.194-1.269l15.412-5.95c.7-.319 1.381.169 1.113 1.25z"/></symbol><symbol id="icon-behance" viewBox="0 0 32 32"><path d="M9.281 6.412c.944 0 1.794.081 2.569.25.775.162 1.431.438 1.988.813.55.375.975.875 1.287 1.5.3.619.45 1.394.45 2.313 0 .994-.225 1.819-.675 2.481-.456.662-1.119 1.2-2.006 1.625 1.213.35 2.106.962 2.706 1.831.6.875.887 1.925.887 3.163 0 1-.194 1.856-.575 2.581a5.048 5.048 0 0 1-1.556 1.781c-.65.462-1.4.8-2.237 1.019-.831.219-1.688.331-2.575.331H0V6.412h9.281zm-.562 7.951c.769 0 1.406-.181 1.906-.55.5-.363.738-.963.738-1.787 0-.456-.081-.838-.244-1.131a1.813 1.813 0 0 0-.669-.688 2.643 2.643 0 0 0-.956-.344 5.871 5.871 0 0 0-1.113-.1h-4.05v4.6h4.388zm.237 8.381c.425 0 .831-.038 1.213-.125.387-.087.731-.219 1.019-.419.287-.194.531-.45.706-.788.175-.331.256-.756.256-1.275 0-1.012-.287-1.738-.856-2.175-.569-.431-1.325-.644-2.262-.644h-4.7v5.419h4.625zM22.663 22.675c.587.575 1.431.863 2.531.863.788 0 1.475-.2 2.044-.6s.913-.825 1.044-1.262h3.45c-.556 1.719-1.394 2.938-2.544 3.675-1.131.738-2.519 1.113-4.125 1.113-1.125 0-2.131-.181-3.038-.538a6.467 6.467 0 0 1-2.3-1.531 7.019 7.019 0 0 1-1.45-2.375c-.337-.919-.512-1.938-.512-3.038a8.3 8.3 0 0 1 .525-2.981c.356-.925.844-1.719 1.494-2.387s1.413-1.2 2.313-1.588c.894-.387 1.881-.581 2.975-.581 1.206 0 2.262.231 3.169.706.9.469 1.644 1.1 2.225 1.887s.994 1.694 1.25 2.706a10.26 10.26 0 0 1 .275 3.175H21.695c0 1.119.375 2.188.969 2.756zm4.493-7.487c-.462-.512-1.256-.794-2.212-.794-.625 0-1.144.106-1.556.319a3.167 3.167 0 0 0-.994.787c-.25.313-.425.65-.525 1.006-.1.344-.163.663-.181.938h6.375c-.094-1-.438-1.738-.906-2.256zM20.887 8h7.981v1.944h-7.981V8z"/></symbol></defs></svg>